<svg xmlns="http://www.w3.org/2000/svg" width="1000" height="1000" viewBox="0 0 1000 1000"><defs><style>.cls-1{fill:#fff;}</style></defs><title>logoOpen</title><g id="ImpossibleCourage"><g id="DoorWay"><path class="cls-1" d="M975,25V975H778.292L775,974.118V225H225V975H25V25H975m25-25H0V1000H250V250H750V993.3l25,6.7h225V0Z"/></g><g id="DoorOpen"><path class="cls-1" d="M500,926.314,275,866.025v-775L775,225v775l-25-6.7ZM750,968.3v-725L300,122.724v325l25,6.7c27.614,7.4,50,35.783,50,63.4s-22.386,44-50,36.6l-25-6.7v300l200,53.589ZM350,536.122m0-50-25-6.7c-13.807-3.7-25,4.494-25,18.3s11.193,28,25,31.7,25-4.494,25-18.3S338.807,483.122,325,479.423Z"/></g></g></svg>