<svg xmlns="http://www.w3.org/2000/svg" width="1000" height="1000" viewBox="0 0 1000 1000"><defs><style>.cls-1{fill:#fff;}</style></defs><title>logo</title><g id="ImpossibleCourage"><g id="DoorWay"><path class="cls-1" d="M975,25V975H775V225H225V975H25V25H975m25-25H0V1000H250V250H750v750h250V0Z"/></g><g id="Door-5" data-name="Door"><path class="cls-1" d="M500,1000H225V225H775v775H500Zm250-25V250H250V575h25a50,50,0,0,1,0,100H250V975H750ZM300,650m0-50-25,0a25,25,0,1,0,25,25A25,25,0,0,0,275,600Z"/></g></g></svg>